# xmcd CD database file
#
# Track frame offsets:
#	183
#	6668
#	17683
#	31453
#	45265
#	58438
#	80885
#	94940
#	112660
#	130920
#	139525
#	157063
#	170240
#	185423
#	204325
#	217498
#	229518
#	244363
#	252543
#	269978
#
# Disc length: 3753 seconds
#
# Revision: 1
# Processed by: cddbd v1.5.1PL0 Copyright (c) Steve Scherf et al.
# Submitted via: CDex 1.50Beta1
#
DISCID=350ea714
DTITLE=Inkspots - Inkspots In London
DYEAR=1900
DGENRE=
TTITLE0=The Best Things In Life Are Free
TTITLE1=Into Each Life Some Rain Must Fall
TTITLE2=Whispering Grass
TTITLE3=Bless You
TTITLE4=Java Jive
TTITLE5=Young At Heart
TTITLE6=Straighten Up And Fly Right
TTITLE7=Address Unknown
TTITLE8=If I Don't Care
TTITLE9=St Louis Blues
TTITLE10=We Three
TTITLE11=The Gypsy
TTITLE12=It's All Right With Me
TTITLE13=Here's That Rainy Day
TTITLE14=Witchcraft
TTITLE15=Maybe
TTITLE16=It's A Sin To Tell A Lie
TTITLE17=Alright, OK, You Win
TTITLE18=We'll Meet Again
TTITLE19=When The Saints Go Marching In
EXTD=inkspots in london
EXTT0=
EXTT1=
EXTT2=
EXTT3=
EXTT4=
EXTT5=
EXTT6=
EXTT7=
EXTT8=
EXTT9=
EXTT10=
EXTT11=
EXTT12=
EXTT13=
EXTT14=
EXTT15=
EXTT16=
EXTT17=
EXTT18=
EXTT19=
PLAYORDER=
